<mxfile host="app.diagrams.net" modified="2023-08-03T13:33:08.283Z" agent="Mozilla/5.0 (Macintosh; Intel Mac OS X 10_15_7) AppleWebKit/537.36 (KHTML, like Gecko) Chrome/114.0.0.0 Safari/537.36" etag="0pIghWejAcdKzOUaBASX" version="21.6.6" type="github">
  <diagram name="Page-1" id="9f46799a-70d6-7492-0946-bef42562c5a5">
    <mxGraphModel dx="3606" dy="834" grid="1" gridSize="10" guides="1" tooltips="1" connect="1" arrows="1" fold="1" page="1" pageScale="1" pageWidth="1100" pageHeight="850" background="none" math="0" shadow="0">
      <root>
        <mxCell id="0" />
        <mxCell id="1" parent="0" />
        <mxCell id="1uc1YDlZ_63V2D0Gf1hv-35" style="edgeStyle=orthogonalEdgeStyle;rounded=0;orthogonalLoop=1;jettySize=auto;html=1;exitX=0.5;exitY=1;exitDx=0;exitDy=0;entryX=1;entryY=0.5;entryDx=0;entryDy=0;" edge="1" parent="1" source="1uc1YDlZ_63V2D0Gf1hv-2" target="1uc1YDlZ_63V2D0Gf1hv-33">
          <mxGeometry relative="1" as="geometry">
            <mxPoint x="513" y="460" as="targetPoint" />
            <Array as="points">
              <mxPoint x="513" y="410" />
            </Array>
          </mxGeometry>
        </mxCell>
        <mxCell id="1uc1YDlZ_63V2D0Gf1hv-2" value="individual: class" style="swimlane;fontStyle=0;childLayout=stackLayout;horizontal=1;startSize=30;horizontalStack=0;resizeParent=1;resizeParentMax=0;resizeLast=0;collapsible=1;marginBottom=0;whiteSpace=wrap;html=1;" vertex="1" parent="1">
          <mxGeometry x="443" y="293" width="140" height="60" as="geometry" />
        </mxCell>
        <mxCell id="1uc1YDlZ_63V2D0Gf1hv-6" value="model: class" style="swimlane;fontStyle=0;childLayout=stackLayout;horizontal=1;startSize=30;horizontalStack=0;resizeParent=1;resizeParentMax=0;resizeLast=0;collapsible=1;marginBottom=0;whiteSpace=wrap;html=1;" vertex="1" parent="1">
          <mxGeometry x="233" y="5" width="140" height="60" as="geometry" />
        </mxCell>
        <mxCell id="1uc1YDlZ_63V2D0Gf1hv-26" value="init()" style="text;html=1;align=center;verticalAlign=middle;resizable=0;points=[];autosize=1;strokeColor=none;fillColor=none;" vertex="1" parent="1uc1YDlZ_63V2D0Gf1hv-6">
          <mxGeometry y="30" width="140" height="30" as="geometry" />
        </mxCell>
        <mxCell id="1uc1YDlZ_63V2D0Gf1hv-8" value="model: class" style="swimlane;fontStyle=0;childLayout=stackLayout;horizontal=1;startSize=30;horizontalStack=0;resizeParent=1;resizeParentMax=0;resizeLast=0;collapsible=1;marginBottom=0;whiteSpace=wrap;html=1;" vertex="1" parent="1">
          <mxGeometry x="120" y="100" width="370" height="60" as="geometry" />
        </mxCell>
        <mxCell id="1uc1YDlZ_63V2D0Gf1hv-9" value="setup(size: int, parameters: str, use_ipf: bool); returns: agents&amp;nbsp;" style="text;html=1;strokeColor=none;fillColor=none;align=center;verticalAlign=middle;whiteSpace=wrap;rounded=0;" vertex="1" parent="1uc1YDlZ_63V2D0Gf1hv-8">
          <mxGeometry y="30" width="370" height="30" as="geometry" />
        </mxCell>
        <mxCell id="1uc1YDlZ_63V2D0Gf1hv-11" value="" style="endArrow=classic;html=1;rounded=0;exitX=0.5;exitY=1;exitDx=0;exitDy=0;entryX=0.5;entryY=0;entryDx=0;entryDy=0;" edge="1" parent="1" source="1uc1YDlZ_63V2D0Gf1hv-9" target="1uc1YDlZ_63V2D0Gf1hv-29">
          <mxGeometry width="50" height="50" relative="1" as="geometry">
            <mxPoint x="123" y="195" as="sourcePoint" />
            <mxPoint x="303" y="200" as="targetPoint" />
            <Array as="points" />
          </mxGeometry>
        </mxCell>
        <mxCell id="1uc1YDlZ_63V2D0Gf1hv-15" style="edgeStyle=orthogonalEdgeStyle;rounded=0;orthogonalLoop=1;jettySize=auto;html=1;exitX=1;exitY=0.5;exitDx=0;exitDy=0;" edge="1" parent="1" source="1uc1YDlZ_63V2D0Gf1hv-12" target="1uc1YDlZ_63V2D0Gf1hv-2">
          <mxGeometry relative="1" as="geometry" />
        </mxCell>
        <mxCell id="1uc1YDlZ_63V2D0Gf1hv-19" style="edgeStyle=orthogonalEdgeStyle;rounded=0;orthogonalLoop=1;jettySize=auto;html=1;entryX=1;entryY=0.5;entryDx=0;entryDy=0;" edge="1" parent="1" source="1uc1YDlZ_63V2D0Gf1hv-12" target="1uc1YDlZ_63V2D0Gf1hv-17">
          <mxGeometry relative="1" as="geometry" />
        </mxCell>
        <mxCell id="1uc1YDlZ_63V2D0Gf1hv-12" value="use_ipf" style="rhombus;whiteSpace=wrap;html=1;" vertex="1" parent="1">
          <mxGeometry x="263" y="283" width="80" height="80" as="geometry" />
        </mxCell>
        <mxCell id="1uc1YDlZ_63V2D0Gf1hv-16" value="True" style="text;html=1;strokeColor=none;fillColor=none;align=center;verticalAlign=middle;whiteSpace=wrap;rounded=0;" vertex="1" parent="1">
          <mxGeometry x="353" y="313" width="60" as="geometry" />
        </mxCell>
        <mxCell id="1uc1YDlZ_63V2D0Gf1hv-34" style="edgeStyle=orthogonalEdgeStyle;rounded=0;orthogonalLoop=1;jettySize=auto;html=1;" edge="1" parent="1" source="1uc1YDlZ_63V2D0Gf1hv-17" target="1uc1YDlZ_63V2D0Gf1hv-33">
          <mxGeometry relative="1" as="geometry">
            <mxPoint x="83" y="470" as="targetPoint" />
            <Array as="points">
              <mxPoint x="83" y="410" />
            </Array>
          </mxGeometry>
        </mxCell>
        <mxCell id="1uc1YDlZ_63V2D0Gf1hv-17" value="individual: class" style="swimlane;fontStyle=0;childLayout=stackLayout;horizontal=1;startSize=30;horizontalStack=0;resizeParent=1;resizeParentMax=0;resizeLast=0;collapsible=1;marginBottom=0;whiteSpace=wrap;html=1;" vertex="1" parent="1">
          <mxGeometry x="13" y="293" width="140" height="60" as="geometry" />
        </mxCell>
        <mxCell id="1uc1YDlZ_63V2D0Gf1hv-21" value="False" style="text;html=1;strokeColor=none;fillColor=none;align=center;verticalAlign=middle;whiteSpace=wrap;rounded=0;" vertex="1" parent="1">
          <mxGeometry x="183" y="298" width="60" height="30" as="geometry" />
        </mxCell>
        <mxCell id="1uc1YDlZ_63V2D0Gf1hv-24" value="populate_ipf()" style="text;html=1;align=center;verticalAlign=middle;resizable=0;points=[];autosize=1;strokeColor=none;fillColor=none;" vertex="1" parent="1">
          <mxGeometry x="443" y="321" width="100" height="30" as="geometry" />
        </mxCell>
        <mxCell id="1uc1YDlZ_63V2D0Gf1hv-25" value="populate()" style="text;html=1;align=center;verticalAlign=middle;resizable=0;points=[];autosize=1;strokeColor=none;fillColor=none;" vertex="1" parent="1">
          <mxGeometry x="23" y="321" width="80" height="30" as="geometry" />
        </mxCell>
        <mxCell id="1uc1YDlZ_63V2D0Gf1hv-27" value="" style="edgeStyle=orthogonalEdgeStyle;rounded=0;orthogonalLoop=1;jettySize=auto;html=1;" edge="1" parent="1" source="1uc1YDlZ_63V2D0Gf1hv-26">
          <mxGeometry relative="1" as="geometry">
            <mxPoint x="303" y="100" as="targetPoint" />
          </mxGeometry>
        </mxCell>
        <mxCell id="1uc1YDlZ_63V2D0Gf1hv-32" value="" style="edgeStyle=orthogonalEdgeStyle;rounded=0;orthogonalLoop=1;jettySize=auto;html=1;" edge="1" parent="1" source="1uc1YDlZ_63V2D0Gf1hv-29" target="1uc1YDlZ_63V2D0Gf1hv-12">
          <mxGeometry relative="1" as="geometry" />
        </mxCell>
        <mxCell id="1uc1YDlZ_63V2D0Gf1hv-29" value="model: class" style="swimlane;fontStyle=0;childLayout=stackLayout;horizontal=1;startSize=30;horizontalStack=0;resizeParent=1;resizeParentMax=0;resizeLast=0;collapsible=1;marginBottom=0;whiteSpace=wrap;html=1;" vertex="1" parent="1">
          <mxGeometry x="233" y="190" width="140" height="60" as="geometry" />
        </mxCell>
        <mxCell id="1uc1YDlZ_63V2D0Gf1hv-30" value="param_file_validation()" style="text;html=1;strokeColor=none;fillColor=none;align=center;verticalAlign=middle;whiteSpace=wrap;rounded=0;" vertex="1" parent="1uc1YDlZ_63V2D0Gf1hv-29">
          <mxGeometry y="30" width="140" height="30" as="geometry" />
        </mxCell>
        <mxCell id="1uc1YDlZ_63V2D0Gf1hv-38" style="edgeStyle=orthogonalEdgeStyle;rounded=0;orthogonalLoop=1;jettySize=auto;html=1;entryX=0.5;entryY=0;entryDx=0;entryDy=0;exitX=0.5;exitY=1;exitDx=0;exitDy=0;" edge="1" parent="1" source="1uc1YDlZ_63V2D0Gf1hv-33" target="1uc1YDlZ_63V2D0Gf1hv-36">
          <mxGeometry relative="1" as="geometry" />
        </mxCell>
        <mxCell id="1uc1YDlZ_63V2D0Gf1hv-33" value="agents" style="rhombus;whiteSpace=wrap;html=1;" vertex="1" parent="1">
          <mxGeometry x="263" y="370" width="80" height="80" as="geometry" />
        </mxCell>
        <mxCell id="1uc1YDlZ_63V2D0Gf1hv-36" value="model: class" style="swimlane;fontStyle=0;childLayout=stackLayout;horizontal=1;startSize=30;horizontalStack=0;resizeParent=1;resizeParentMax=0;resizeLast=0;collapsible=1;marginBottom=0;whiteSpace=wrap;html=1;" vertex="1" parent="1">
          <mxGeometry x="-60" y="542" width="230" height="60" as="geometry" />
        </mxCell>
        <mxCell id="1uc1YDlZ_63V2D0Gf1hv-37" value="run(step: int, lockdown: list, out_path: str)" style="text;html=1;align=center;verticalAlign=middle;resizable=0;points=[];autosize=1;strokeColor=none;fillColor=none;" vertex="1" parent="1uc1YDlZ_63V2D0Gf1hv-36">
          <mxGeometry y="30" width="230" height="30" as="geometry" />
        </mxCell>
        <mxCell id="1uc1YDlZ_63V2D0Gf1hv-69" style="edgeStyle=orthogonalEdgeStyle;rounded=0;orthogonalLoop=1;jettySize=auto;html=1;" edge="1" parent="1" source="1uc1YDlZ_63V2D0Gf1hv-39">
          <mxGeometry relative="1" as="geometry">
            <mxPoint x="400" y="570" as="targetPoint" />
          </mxGeometry>
        </mxCell>
        <mxCell id="1uc1YDlZ_63V2D0Gf1hv-39" value="model: class" style="swimlane;fontStyle=0;childLayout=stackLayout;horizontal=1;startSize=30;horizontalStack=0;resizeParent=1;resizeParentMax=0;resizeLast=0;collapsible=1;marginBottom=0;whiteSpace=wrap;html=1;" vertex="1" parent="1">
          <mxGeometry x="203" y="542" width="140" height="60" as="geometry" />
        </mxCell>
        <mxCell id="1uc1YDlZ_63V2D0Gf1hv-40" value="step()&amp;nbsp;" style="text;html=1;align=center;verticalAlign=middle;resizable=0;points=[];autosize=1;strokeColor=none;fillColor=none;" vertex="1" parent="1uc1YDlZ_63V2D0Gf1hv-39">
          <mxGeometry y="30" width="140" height="30" as="geometry" />
        </mxCell>
        <mxCell id="1uc1YDlZ_63V2D0Gf1hv-41" value="model: class" style="swimlane;fontStyle=0;childLayout=stackLayout;horizontal=1;startSize=30;horizontalStack=0;resizeParent=1;resizeParentMax=0;resizeLast=0;collapsible=1;marginBottom=0;whiteSpace=wrap;html=1;" vertex="1" parent="1">
          <mxGeometry x="406" y="542" width="140" height="60" as="geometry" />
        </mxCell>
        <mxCell id="1uc1YDlZ_63V2D0Gf1hv-42" value="update()" style="text;html=1;align=center;verticalAlign=middle;resizable=0;points=[];autosize=1;strokeColor=none;fillColor=none;" vertex="1" parent="1uc1YDlZ_63V2D0Gf1hv-41">
          <mxGeometry y="30" width="140" height="30" as="geometry" />
        </mxCell>
        <mxCell id="1uc1YDlZ_63V2D0Gf1hv-64" style="edgeStyle=orthogonalEdgeStyle;rounded=0;orthogonalLoop=1;jettySize=auto;html=1;" edge="1" parent="1">
          <mxGeometry relative="1" as="geometry">
            <mxPoint x="180" y="470" as="targetPoint" />
            <mxPoint x="530" y="540" as="sourcePoint" />
            <Array as="points">
              <mxPoint x="530" y="540" />
              <mxPoint x="530" y="470" />
            </Array>
          </mxGeometry>
        </mxCell>
        <mxCell id="1uc1YDlZ_63V2D0Gf1hv-100" value="" style="edgeStyle=orthogonalEdgeStyle;rounded=0;orthogonalLoop=1;jettySize=auto;html=1;" edge="1" parent="1" source="1uc1YDlZ_63V2D0Gf1hv-43" target="1uc1YDlZ_63V2D0Gf1hv-97">
          <mxGeometry relative="1" as="geometry" />
        </mxCell>
        <mxCell id="1uc1YDlZ_63V2D0Gf1hv-43" value="model: class" style="swimlane;fontStyle=0;childLayout=stackLayout;horizontal=1;startSize=30;horizontalStack=0;resizeParent=1;resizeParentMax=0;resizeLast=0;collapsible=1;marginBottom=0;whiteSpace=wrap;html=1;" vertex="1" parent="1">
          <mxGeometry x="583" y="542" width="140" height="60" as="geometry" />
        </mxCell>
        <mxCell id="1uc1YDlZ_63V2D0Gf1hv-44" value="report()" style="text;html=1;align=center;verticalAlign=middle;resizable=0;points=[];autosize=1;strokeColor=none;fillColor=none;" vertex="1" parent="1uc1YDlZ_63V2D0Gf1hv-43">
          <mxGeometry y="30" width="140" height="30" as="geometry" />
        </mxCell>
        <mxCell id="1uc1YDlZ_63V2D0Gf1hv-45" value="" style="endArrow=none;dashed=1;html=1;rounded=0;entryX=0.616;entryY=0.987;entryDx=0;entryDy=0;entryPerimeter=0;" edge="1" parent="1" source="1uc1YDlZ_63V2D0Gf1hv-105" target="1uc1YDlZ_63V2D0Gf1hv-37">
          <mxGeometry width="50" height="50" relative="1" as="geometry">
            <mxPoint x="66.19" y="827.6" as="sourcePoint" />
            <mxPoint x="65.99999999999994" y="602.0000000000001" as="targetPoint" />
          </mxGeometry>
        </mxCell>
        <mxCell id="1uc1YDlZ_63V2D0Gf1hv-66" value="" style="endArrow=classic;html=1;rounded=0;" edge="1" parent="1">
          <mxGeometry width="50" height="50" relative="1" as="geometry">
            <mxPoint x="528" y="470" as="sourcePoint" />
            <mxPoint x="458" y="470" as="targetPoint" />
          </mxGeometry>
        </mxCell>
        <mxCell id="1uc1YDlZ_63V2D0Gf1hv-67" value="" style="endArrow=classic;html=1;rounded=0;" edge="1" parent="1">
          <mxGeometry width="50" height="50" relative="1" as="geometry">
            <mxPoint x="183" y="470" as="sourcePoint" />
            <mxPoint x="53" y="539" as="targetPoint" />
            <Array as="points">
              <mxPoint x="53" y="470" />
              <mxPoint x="53" y="529" />
              <mxPoint x="53" y="539" />
            </Array>
          </mxGeometry>
        </mxCell>
        <mxCell id="1uc1YDlZ_63V2D0Gf1hv-80" value="" style="edgeStyle=orthogonalEdgeStyle;rounded=0;orthogonalLoop=1;jettySize=auto;html=1;" edge="1" parent="1" source="1uc1YDlZ_63V2D0Gf1hv-76" target="1uc1YDlZ_63V2D0Gf1hv-78">
          <mxGeometry relative="1" as="geometry" />
        </mxCell>
        <mxCell id="1uc1YDlZ_63V2D0Gf1hv-76" value="individual: class" style="swimlane;fontStyle=0;childLayout=stackLayout;horizontal=1;startSize=30;horizontalStack=0;resizeParent=1;resizeParentMax=0;resizeLast=0;collapsible=1;marginBottom=0;whiteSpace=wrap;html=1;" vertex="1" parent="1">
          <mxGeometry x="186" y="627" width="175" height="60" as="geometry" />
        </mxCell>
        <mxCell id="1uc1YDlZ_63V2D0Gf1hv-77" value="choose_actions_on_lockdown()" style="text;html=1;align=center;verticalAlign=middle;resizable=0;points=[];autosize=1;strokeColor=none;fillColor=none;" vertex="1" parent="1uc1YDlZ_63V2D0Gf1hv-76">
          <mxGeometry y="30" width="175" height="30" as="geometry" />
        </mxCell>
        <mxCell id="1uc1YDlZ_63V2D0Gf1hv-78" value="individual: class" style="swimlane;fontStyle=0;childLayout=stackLayout;horizontal=1;startSize=30;horizontalStack=0;resizeParent=1;resizeParentMax=0;resizeLast=0;collapsible=1;marginBottom=0;whiteSpace=wrap;html=1;" vertex="1" parent="1">
          <mxGeometry x="186" y="714" width="175" height="60" as="geometry" />
        </mxCell>
        <mxCell id="1uc1YDlZ_63V2D0Gf1hv-79" value="take_actions()" style="text;html=1;align=center;verticalAlign=middle;resizable=0;points=[];autosize=1;strokeColor=none;fillColor=none;" vertex="1" parent="1uc1YDlZ_63V2D0Gf1hv-78">
          <mxGeometry y="30" width="175" height="30" as="geometry" />
        </mxCell>
        <mxCell id="1uc1YDlZ_63V2D0Gf1hv-87" value="" style="edgeStyle=orthogonalEdgeStyle;rounded=0;orthogonalLoop=1;jettySize=auto;html=1;" edge="1" parent="1" source="1uc1YDlZ_63V2D0Gf1hv-40">
          <mxGeometry relative="1" as="geometry">
            <mxPoint x="274" y="630" as="targetPoint" />
            <Array as="points">
              <mxPoint x="274" y="622" />
              <mxPoint x="275" y="622" />
            </Array>
          </mxGeometry>
        </mxCell>
        <mxCell id="1uc1YDlZ_63V2D0Gf1hv-88" value="return" style="html=1;verticalAlign=bottom;endArrow=open;dashed=1;endSize=8;edgeStyle=elbowEdgeStyle;elbow=vertical;curved=0;rounded=0;" edge="1" parent="1">
          <mxGeometry relative="1" as="geometry">
            <mxPoint x="181" y="744" as="sourcePoint" />
            <mxPoint x="107" y="743.5" as="targetPoint" />
            <Array as="points">
              <mxPoint x="94" y="744" />
            </Array>
          </mxGeometry>
        </mxCell>
        <mxCell id="1uc1YDlZ_63V2D0Gf1hv-90" value="" style="endArrow=none;dashed=1;html=1;rounded=0;" edge="1" parent="1" target="1uc1YDlZ_63V2D0Gf1hv-79">
          <mxGeometry width="50" height="50" relative="1" as="geometry">
            <mxPoint x="273" y="800" as="sourcePoint" />
            <mxPoint x="273" y="780" as="targetPoint" />
          </mxGeometry>
        </mxCell>
        <mxCell id="1uc1YDlZ_63V2D0Gf1hv-91" value="" style="endArrow=none;dashed=1;html=1;rounded=0;entryX=0.347;entryY=1.08;entryDx=0;entryDy=0;entryPerimeter=0;" edge="1" parent="1">
          <mxGeometry width="50" height="50" relative="1" as="geometry">
            <mxPoint x="476" y="800" as="sourcePoint" />
            <mxPoint x="475.5" y="602" as="targetPoint" />
          </mxGeometry>
        </mxCell>
        <mxCell id="1uc1YDlZ_63V2D0Gf1hv-92" value="return" style="html=1;verticalAlign=bottom;endArrow=open;dashed=1;endSize=8;edgeStyle=elbowEdgeStyle;elbow=vertical;curved=0;rounded=0;" edge="1" parent="1">
          <mxGeometry relative="1" as="geometry">
            <mxPoint x="470" y="804" as="sourcePoint" />
            <mxPoint x="122" y="803.5" as="targetPoint" />
            <Array as="points">
              <mxPoint x="109" y="804" />
            </Array>
          </mxGeometry>
        </mxCell>
        <mxCell id="1uc1YDlZ_63V2D0Gf1hv-96" value="for step, current lockdown" style="text;html=1;strokeColor=none;fillColor=none;align=center;verticalAlign=middle;whiteSpace=wrap;rounded=0;" vertex="1" parent="1">
          <mxGeometry x="278" y="450" width="210" height="30" as="geometry" />
        </mxCell>
        <mxCell id="1uc1YDlZ_63V2D0Gf1hv-97" value="produces csv file" style="rounded=1;whiteSpace=wrap;html=1;" vertex="1" parent="1">
          <mxGeometry x="770" y="542" width="120" height="60" as="geometry" />
        </mxCell>
        <mxCell id="1uc1YDlZ_63V2D0Gf1hv-98" value="" style="edgeStyle=orthogonalEdgeStyle;rounded=0;orthogonalLoop=1;jettySize=auto;html=1;" edge="1" parent="1" source="1uc1YDlZ_63V2D0Gf1hv-37" target="1uc1YDlZ_63V2D0Gf1hv-40">
          <mxGeometry relative="1" as="geometry" />
        </mxCell>
        <mxCell id="1uc1YDlZ_63V2D0Gf1hv-99" value="" style="endArrow=classic;html=1;rounded=0;exitX=0.394;exitY=1.12;exitDx=0;exitDy=0;exitPerimeter=0;" edge="1" parent="1">
          <mxGeometry width="50" height="50" relative="1" as="geometry">
            <mxPoint x="12.999999999999892" y="609.9999999999999" as="sourcePoint" />
            <mxPoint x="650" y="610" as="targetPoint" />
            <Array as="points">
              <mxPoint x="13.38" y="834.4" />
              <mxPoint x="650" y="840" />
            </Array>
          </mxGeometry>
        </mxCell>
        <mxCell id="1uc1YDlZ_63V2D0Gf1hv-104" value="" style="endArrow=none;dashed=1;html=1;rounded=0;entryX=0.347;entryY=1.08;entryDx=0;entryDy=0;entryPerimeter=0;" edge="1" parent="1" target="1uc1YDlZ_63V2D0Gf1hv-103">
          <mxGeometry width="50" height="50" relative="1" as="geometry">
            <mxPoint x="66.19" y="827.6" as="sourcePoint" />
            <mxPoint x="65.99999999999994" y="602.0000000000001" as="targetPoint" />
          </mxGeometry>
        </mxCell>
        <mxCell id="1uc1YDlZ_63V2D0Gf1hv-103" value="cumulative mental health" style="rounded=1;whiteSpace=wrap;html=1;" vertex="1" parent="1">
          <mxGeometry x="40" y="774" width="77" height="54" as="geometry" />
        </mxCell>
        <mxCell id="1uc1YDlZ_63V2D0Gf1hv-106" value="" style="endArrow=none;dashed=1;html=1;rounded=0;entryX=0.616;entryY=0.987;entryDx=0;entryDy=0;entryPerimeter=0;" edge="1" parent="1" source="1uc1YDlZ_63V2D0Gf1hv-103" target="1uc1YDlZ_63V2D0Gf1hv-105">
          <mxGeometry width="50" height="50" relative="1" as="geometry">
            <mxPoint x="79" y="774" as="sourcePoint" />
            <mxPoint x="82" y="602" as="targetPoint" />
          </mxGeometry>
        </mxCell>
        <mxCell id="1uc1YDlZ_63V2D0Gf1hv-105" value="mental health" style="rounded=1;whiteSpace=wrap;html=1;" vertex="1" parent="1">
          <mxGeometry x="48.5" y="714" width="60" height="50" as="geometry" />
        </mxCell>
      </root>
    </mxGraphModel>
  </diagram>
</mxfile>
